# xmcd CD database file
#
# Track frame offsets:
#	150
#	14794
#	27687
#	39317
#	50294
#	64234
#	76851
#	90511
#	103679
#	118084
#	131155
#	146368
#	158248
#	172453
#	184693
#	196737
#	208451
#	219808
#	232074
#	244468
#	256327
#	269091
#	280783
#	293182
#
# Disc length: 4073 seconds
#
# Revision: 1
# Processed by: cddbd v1.5.2PL0 Copyright (c) Steve Scherf et al.
# Submitted via: CDex 1.51
#
DISCID=770fe718
DTITLE=Charles Brown - Cool Blues Singer
DYEAR=2005
DGENRE=Blues
TTITLE0=Driftin' blues
TTITLE1=More than you know
TTITLE2=Groovy movie blues
TTITLE3=Trouble blues
TTITLE4=Get yourself another fool
TTITLE5=Merry Christmas Baby
TTITLE6=In the evening when the sun goes down
TTITLE7=Where can I find my baby
TTITLE8=Hard times
TTITLE9=It's nothing
TTITLE10=Black night
TTITLE11=Blazer's boogie
TTITLE12=C.O.D.
TTITLE13=St.Louis blues
TTITLE14=Rocks in my bed
TTITLE15=Way other there by the cherry tree
TTITLE16=Money's getting cheaper
TTITLE17=I surrender dear
TTITLE18=Scratch sheet
TTITLE19=My last affair
TTITLE20=So there
TTITLE21=Did you ever love a woman
TTITLE22=Cryin' mercy
TTITLE23=Alley baiting
EXTD=YEAR: 2005
EXTT0=
EXTT1=
EXTT2=
EXTT3=
EXTT4=
EXTT5=
EXTT6=
EXTT7=
EXTT8=
EXTT9=
EXTT10=
EXTT11=
EXTT12=
EXTT13=
EXTT14=
EXTT15=
EXTT16=
EXTT17=
EXTT18=
EXTT19=
EXTT20=
EXTT21=
EXTT22=
EXTT23=
PLAYORDER=
